<?xml version="1.0" standalone="no"?><!DOCTYPE svg PUBLIC "-//W3C//DTD SVG 1.1//EN" "http://www.w3.org/Graphics/SVG/1.1/DTD/svg11.dtd"><svg t="1677762184816" class="icon" viewBox="0 0 1024 1024" version="1.1" xmlns="http://www.w3.org/2000/svg" p-id="16144" xmlns:xlink="http://www.w3.org/1999/xlink" width="200" height="200"><path d="M755.931429 34.121143a155.392 155.392 0 0 1 155.355428 155.355428v663.296a155.392 155.392 0 0 1-155.355428 155.355429H155.355429A155.392 155.392 0 0 1 0 852.772571V189.476571A155.392 155.392 0 0 1 155.355429 34.121143H755.931429zM467.565714 546.011429H174.811429a46.811429 46.811429 0 1 0 0 93.622857h292.790857a46.811429 46.811429 0 1 0 0-93.622857z m179.309715-265.874286H174.774857a46.811429 46.811429 0 1 0 0 93.622857h472.100572a46.811429 46.811429 0 1 0 0-93.622857z" fill="#A5ADF6" p-id="16145"></path><path d="M644.461714 947.748571l-120.685714 12.214858a22.125714 22.125714 0 0 1-24.941714-24.978286l12.214857-120.649143c1.389714-13.641143 7.899429-26.953143 18.212571-37.266286l323.803429-323.803428c22.345143-22.345143 56.210286-24.758857 75.593143-5.376l82.212571 82.212571c19.419429 19.382857 17.005714 53.248-5.376 75.593143l-323.803428 323.803429a61.696 61.696 0 0 1-37.229715 18.285714z" fill="#635DF7" p-id="16146"></path></svg>