<?xml version="1.0" standalone="no"?><!DOCTYPE svg PUBLIC "-//W3C//DTD SVG 1.1//EN" "http://www.w3.org/Graphics/SVG/1.1/DTD/svg11.dtd"><svg t="1677764091252" class="icon" viewBox="0 0 1024 1024" version="1.1" xmlns="http://www.w3.org/2000/svg" p-id="27612" xmlns:xlink="http://www.w3.org/1999/xlink" width="200" height="200"><path d="M512 512m-512 0a512 512 0 1 0 1024 0 512 512 0 1 0-1024 0Z" fill="#006775" p-id="27613"></path><path d="M1023.35201 537.347604l-147.1797-147.1797-37.223419 37.223418-162.075467-162.075468-470.022656 470.020656L495.198263 1023.684005c5.587913 0.179997 11.177825 0.301995 16.809737 0.301995 274.263715 0 498.146216-215.64863 511.36001-486.630396l-0.016-0.008z" fill="#055661" p-id="27614"></path><path d="M459.954813 267.773816l416.221497 122.384088-122.384088 416.221496-416.221497-122.384087z" fill="#F9F9F9" p-id="27615"></path><path d="M876.16431 390.167904l-122.372088 416.221496-416.221497-122.378088 538.593585-293.843408z" fill="#E6E6E6" p-id="27616"></path><path d="M480.504492 317.365041l351.588507 103.382385-79.052765 268.855799-351.590507-103.380385z" fill="#87AAFF" p-id="27617"></path><path d="M632.98411 546.495461c0.151998 0.273996 0.309995 0.575991 0.467992 0.897986 2.791956 5.545913 7.395884 17.93172 4.359932 35.331448-4.199934 24.125623-17.629725 33.713473-17.629724 33.713473 3.783941 3.17995 7.457883 4.797925 10.983828 4.48193 0 0 12.111811-12.8258 13.257793-39.373385 0.913986-21.189669-6.027906-32.921486-8.869862-36.789425a2.785956 2.785956 0 0 0-1.797971-3.711942 2.781957 2.781957 0 1 0-0.771988 5.449915z" fill="#663333" p-id="27618"></path><path d="M632.34212 542.331526s-21.519664-14.025781-28.469556-5.961907c-6.947891 8.071874-11.457821 14.931767-11.45782 14.931767l8.639865-6.443899-0.805988 3.287948 8.465868-5.055921-0.825987 2.005969 9.437852-3.725942-0.891986 2.221965 15.765754 0.423994 0.135998-1.681974 0.006-0.002zM633.732098 542.06553s23.851627-7.509883 28.763551-3.575944c4.911923 3.933939 9.817847 14.615772 9.817846 14.615772l-7.891877-6.565898 0.459993 3.107952-7.861877-5.265918 0.611991 1.91197-8.96186-4.093936 0.653989 2.121967-15.643755-0.689989 0.043999-1.567976 0.008 0.002z" fill="#38C20E" p-id="27619"></path><path d="M633.056108 543.445509s16.535742 0.035999 23.427634 9.207856c6.889892 9.163857 6.241902 17.543726 6.241903 17.543726-2.949954-3.495945-4.235934-7.66788-8.833862-10.487836l-0.337995 4.149935-5.637912-9.257856-0.825987 2.60396-5.055921-6.149904-0.689989 2.493961-6.329901-6.4439s-3.683942-2.769957-1.961969-3.661942h0.005999v0.002z" fill="#38C20E" p-id="27620"></path><path d="M631.780128 543.207512s-16.527742-0.409994-23.66563 8.567867c-7.127889 8.97786-6.709895 17.371729-6.709895 17.371728 3.043952-3.417947 4.437931-7.553882 9.113858-10.24184l0.221996 4.165935 5.883908-9.105858 0.753988 2.633959 5.213919-6.011906 0.62599 2.511961 6.493899-6.271902c0.006-0.008 3.759941-2.675958 2.067967-3.619944zM632.832112 540.929548s-4.165935-18.457712-7.191888-19.349698c-3.027953-0.891986-17.003734 6.795894-17.003734 6.795894l-3.595944 4.323933 9.177857-2.841956-0.797988 2.733957 8.515867-2.475961-0.747988 2.271964s3.107951-0.453993 5.459915 2.725958 5.703911 7.213887 5.70391 7.213887l1.207982-0.365994-0.717989-1.035984h-0.008v0.004z" fill="#38C20E" p-id="27621"></path><path d="M642.145966 524.709801c-2.921954 1.595975-7.725879 12.969797-9.199856 17.443728-0.451993 1.379978 0.62599 0.531992 0.62599 0.531992s3.755941-6.465899 6.077905-6.191904c2.321964 0.279996 3.129951 2.443962 3.129952 2.443962l-0.337995-4.639927c3.805941 0.481992 6.933892 2.53196 6.825893 2.213965l-1.163982-3.395947 7.141889 3.539945c-0.589991-4.027937-9.723848-13.795784-13.099796-11.953813v0.007999z" fill="#38C20E" p-id="27622"></path><path d="M633.108108 543.251512m-3.147951 0a3.147951 3.147951 0 1 0 6.295901 0 3.147951 3.147951 0 1 0-6.295901 0Z" fill="#27A600" p-id="27623"></path><path d="M633.573319 551.24933a2.779957 3.18395 4.133 1 0-5.545454-0.400714 2.779957 3.18395 4.133 1 0 5.545454 0.400714Z" fill="#D7680F" p-id="27624"></path><path d="M628.876174 550.295402a1.475977 1.28998 90 1 0 2.579959 0 1.475977 1.28998 90 1 0-2.579959 0Z" fill="#E59C0B" p-id="27625"></path><path d="M637.303116 547.875377a2.779957 3.18395 4.133 1 0-5.545454-0.400713 2.779957 3.18395 4.133 1 0 5.545454 0.400713Z" fill="#D7680F" p-id="27626"></path><path d="M632.598116 546.893455a1.475977 1.28998 90 1 0 2.579959 0 1.475977 1.28998 90 1 0-2.579959 0Z" fill="#E59C0B" p-id="27627"></path><path d="M631.477482 547.402371a2.779957 3.18395 30.458 1 0-4.79265-2.818357 2.779957 3.18395 30.458 1 0 4.79265 2.818357Z" fill="#D7680F" p-id="27628"></path><path d="M629.978572 545.691135a1.29198 1.479977 30.458 1 0-2.227376-1.309826 1.29198 1.479977 30.458 1 0 2.227376 1.309826Z" fill="#E59C0B" p-id="27629"></path><path d="M611.684442 598.450649c59.53507 17.507726 103.814378 51.617193 110.034281 81.94072l-246.914142-72.596866c21.643662-22.133654 77.336792-26.845581 136.879861-9.343854z" fill="#FAC014" p-id="27630"></path><path d="M681.231356 469.058671c0.351995 0.65399 0.717989 1.357979 1.099983 2.113967 6.551898 13.011797 17.335729 42.035343 10.21984 82.846705-9.853846 56.571116-41.343354 79.042765-41.343354 79.042765 8.869861 7.459883 17.479727 11.255824 25.749598 10.507836 0 0 28.397556-30.07353 31.087514-92.326557 2.141967-49.687224-14.141779-77.194794-20.807675-86.278652a6.525898 6.525898 0 0 0-4.215934-8.695864 6.527898 6.527898 0 1 0-1.807972 12.7898h0.016z" fill="#663333" p-id="27631"></path><path d="M679.735379 459.304823s-50.457212-32.901486-66.742957-13.983781c-16.291745 18.917704-26.85758 35.007453-26.85758 35.007453l20.255683-15.119764-1.88997 7.725879 19.859689-11.853814-1.941969 4.703926 22.137654-8.739863-2.099967 5.213918 36.979422 0.985985 0.309995-3.949938-0.01 0.009999zM682.987328 458.664833s55.931126-17.615725 67.454946-8.379869c11.51582 9.227856 23.00964 34.273464 23.009641 34.273465l-18.499711-15.39976 1.085983 7.285887-18.443712-12.343808 1.445977 4.48793-21.017671-9.60985 1.545976 4.977923-36.683427-1.617975 0.093998-3.675943 0.008 0.002z" fill="#38C20E" p-id="27632"></path><path d="M681.403353 461.916783s38.783394 0.085999 54.939142 21.577662c16.153748 21.491664 14.637771 41.127357 14.637771 41.127358-6.903892-8.199872-9.933845-17.975719-20.715676-24.577616l-0.783988 9.731848-13.221794-21.713661-1.933969 6.113904-11.853815-14.413774-1.623975 5.847908-14.845768-15.119763s-8.631865-6.493899-4.609928-8.581866l0.012 0.008z" fill="#38C20E" p-id="27633"></path><path d="M678.4274 461.362791s-38.769394-0.955985-55.491133 20.095686c-16.729739 21.053671-15.737754 40.725364-15.737754 40.725364 7.119889-8.005875 10.415837-17.701723 21.361666-24.017625l0.517992 9.753848 13.803784-21.347667 1.761972 6.163904 12.233809-14.09178 1.465977 5.889908 15.241762-14.70977s8.803862-6.257902 4.833925-8.459868l0.008-0.002zM680.893361 456.018875s-9.767847-43.287324-16.865736-45.379291c-7.097889-2.085967-39.877377 15.939751-39.877377 15.939751l-8.437869 10.127841 21.527664-6.651896-1.88397 6.4079 19.959688-5.797909-1.747973 5.321917s7.271886-1.063983 12.7978 6.3939c5.523914 7.459883 13.379791 16.923736 13.379791 16.923735l2.833956-0.861986-1.681974-2.415962-0.004-0.008z" fill="#38C20E" p-id="27634"></path><path d="M702.72502 417.981469c-6.839893 3.733942-18.119717 30.403525-21.569663 40.883361-1.071983 3.243949 1.451977 1.25198 1.451977 1.251981s8.803862-15.169763 14.255778-14.501774c5.451915 0.66199 7.343885 5.73191 7.343885 5.731911l-0.775988-10.88183c8.925861 1.143982 16.255746 5.933907 15.99575 5.199918l-2.741957-7.963875 16.751738 8.31587c-1.363979-9.461852-22.793644-32.357494-30.71152-28.035562z" fill="#38C20E" p-id="27635"></path><path d="M681.505351 461.480789m-7.375884 0a7.375885 7.375885 0 1 0 14.751769 0 7.375885 7.375885 0 1 0-14.751769 0Z" fill="#38C20E" p-id="27636"></path><path d="M682.604842 480.215556a6.513898 7.463883 4.133 1 0-12.993917-0.938938 6.513898 7.463883 4.133 1 0 12.993917 0.938938Z" fill="#D7680F" p-id="27637"></path><path d="M677.66983 478.172629a3.031953 3.473946 4.133 1 0-6.048135-0.437038 3.031953 3.473946 4.133 1 0 6.048135 0.437038Z" fill="#E59C0B" p-id="27638"></path><path d="M691.342556 472.263819a6.513898 7.463883 4.133 1 0-12.993916-0.938938 6.513898 7.463883 4.133 1 0 12.993916 0.938938Z" fill="#D7680F" p-id="27639"></path><path d="M686.387689 470.216897a3.031953 3.473946 4.133 1 0-6.048136-0.437037 3.031953 3.473946 4.133 1 0 6.048136 0.437037Z" fill="#E59C0B" p-id="27640"></path><path d="M677.703471 471.240351a6.513898 7.463883 30.458 1 0-11.229973-6.603877 6.513898 7.463883 30.458 1 0 11.229973 6.603877Z" fill="#D7680F" p-id="27641"></path><path d="M674.196039 467.199365a3.031953 3.473946 30.458 1 0-5.227092-3.073834 3.031953 3.473946 30.458 1 0 5.227092 3.073834Z" fill="#E59C0B" p-id="27642"></path><path d="M555.217325 417.323479m-33.397478 0a33.397478 33.397478 0 1 0 66.794956 0 33.397478 33.397478 0 1 0-66.794956 0Z" fill="#FAC014" p-id="27643"></path><path d="M508.410056 410.393588c10.515836 3.093952 17.629725 12.19181 18.709708 22.457649 1.997969-0.035999 4.041937 0.221997 6.069905 0.819987a20.081686 20.081686 0 0 1 13.329792 12.709801 15.953751 15.953751 0 0 1 25.441602 11.111827 12.225809 12.225809 0 0 1 9.249856 20.491679l-38.877393-11.427821-16.65774-4.897923-74.682833-21.953657a19.325698 19.325698 0 0 1 0.775988-6.149904 19.253699 19.253699 0 0 1 23.901627-13.041797 19.067702 19.067702 0 0 1 3.063952 1.185982c6.069905-9.759848 18.111717-14.70177 29.677536-11.299823l-0.002-0.006z" fill="#BAE6FF" p-id="27644"></path><path d="M206.840768 265.303855h470.022656v470.022656H206.840768z" fill="#F9F9F9" p-id="27645"></path><path d="M243.334198 310.561147H640.369994v303.619256H243.334198z" fill="#87AAFF" p-id="27646"></path><path d="M640.375994 472.258621v141.921782H317.895033c22.42165-116.942173 101.182419-203.326823 194.940954-203.326823 48.405244 0 92.81455 23.02364 127.540007 61.405041z" fill="#048C75" p-id="27647"></path><path d="M499.426196 614.180403H243.332198v-97.686473c26.317589-17.003734 55.787128-26.533585 86.926642-26.533586 70.948891 0.002 133.311917 49.481227 169.167356 124.220059z" fill="#00CC96" p-id="27648"></path><path d="M351.576507 391.633881m-36.193435 0a36.193434 36.193434 0 1 0 72.386869 0 36.193434 36.193434 0 1 0-72.386869 0Z" fill="#FFE347" p-id="27649"></path><path d="M300.7973 398.72777c11.873814 0 22.045656 7.277886 26.303589 17.623725a21.76966 21.76966 0 0 1 6.559898-1.005985c7.315886 0 13.789785 3.611944 17.745722 9.135857a17.28773 17.28773 0 0 1 29.835534 3.777941 13.247793 13.247793 0 0 1 15.889752 18.477712h-147.057702a20.859674 20.859674 0 0 1-1.071984-6.631897c0-11.52182 9.335854-20.859674 20.859674-20.859674 1.207981 0 2.387963 0.107998 3.539945 0.301996 3.327948-12.009812 14.323776-20.819675 27.395572-20.819675z" fill="#BAE6FF" p-id="27650"></path></svg>